<svg xmlns="http://www.w3.org/2000/svg" viewBox="0 0 377.25 359.06"><defs><style>.cls-1{fill:#f8b037;}.cls-2{fill:#f8b139;}</style></defs><g id="Camada_2" data-name="Camada 2"><g id="Camada_1-2" data-name="Camada 1"><path class="cls-1" d="M134.13,62.39c-14.93,7-11.86,19.89-11.86,31.69q0,123.29,0,246.58c0,9.58-8.79,18.35-18.45,18.37-13.88,0-27.76,0-41.51,0-1-1.49-.18-2.44.71-3,8.66-5.79,9.45-14.16,9.35-23.79-.43-41.2-.18-82.42-.18-123.63v-8.53c-6.92,5.57-11.55,9.66-11.44,18.46.53,40.74.24,81.5.23,122.26C61,350.41,52.27,359,42.55,359c-14,0-28.06,0-42.55,0,.47-1.25.51-2.07.92-2.36,9.46-6.56,10.74-15.77,10.69-26.68-.39-83.55-.22-167.11-.22-250.67A18.42,18.42,0,0,1,30,60.77H132.31ZM60.9,160.11c5.07-5.55,11.17-7.94,11.55-13.75.7-10.61.18-21.3.22-32,0-5.08-3.8-3.35-6.37-3.55s-5.49-.57-5.45,3.8C61,129.08,60.9,143.52,60.9,160.11Z"/><path class="cls-1" d="M306.21,200.42v8.51q0,65.54,0,131.08c0,10.16-9,19-19.28,19-13.6,0-27.21,0-40.35,0-1.36-1.52-.59-2.36.06-2.8,9-6.11,9.72-14.89,9.68-25-.34-84-.19-167.95-.19-251.92,0-9.59,8.78-18.57,18.23-18.58q48.47,0,96.94,0c2,0,3.95.2,5.88.31,0,.91.17,1.58,0,1.71-9.92,6.75-10.38,16.56-10.34,27.47.32,83.29.18,166.58.18,249.87A18.87,18.87,0,0,1,347.84,359H306.61c.64-1.53.71-2.35,1.14-2.63,9.68-6.41,10-15.87,9.84-26.29-.45-36.63-.5-73.28.06-109.91C317.79,211.24,314.43,205.71,306.21,200.42Zm11.26-41.66c0-15.27-.13-29.52.07-43.77.08-5.49-3.63-3.89-6.51-4.19-3.49-.35-5.56.43-5.39,4.68.27,7.27.77,14.63-.1,21.8C304.35,147.05,308.85,153.14,317.47,158.76Z"/><path class="cls-1" d="M183.22,295.88c13.32-6.66,11.73-18.28,11.7-29.72-.17-62.14,0-124.28-.18-186.41,0-4.93,1-8.67,4.88-12,6-5.13,11.67-10.68,17.48-16.06L216,49.9H1.55c-.12-1.14-.34-1.81-.17-1.92C11.49,40.92,12.1,30.75,11.54,19.65,10.91,7.25,18.49,0,30.71,0h346.1c.12.72.39,1.41.24,1.51-10.35,7.24-10.78,17.74-10.19,29,.57,10.77-8.05,19.07-18.72,19.07-24.59,0-49.17.1-73.75-.09-4.24,0-6.93,1.76-10.19,4.17C248.42,65.35,244,80.27,244.51,100c1.4,59.6.51,119.26.5,178.89,0,9.63-9.18,18.69-18.93,18.7H184.66Z"/><path class="cls-2" d="M194.43,60.76c-.7,1.5-.82,2.3-1.27,2.6-9.4,6.23-9.83,15.41-9.78,25.63.33,63.28.12,126.57.27,189.86,0,4.94-1.07,8.65-4.89,11.94-6,5.16-11.63,10.75-17.43,16.18,2.57,2.84,4.74,1.91,6.62,1.92,23.67.08,47.35.17,71-.05,4.71,0,6.44,1.16,6.16,6.05-.4,6.81-.89,13.77.08,20.46,1.41,9.75-3.37,15.8-10.05,21.44a8.89,8.89,0,0,1-6.16,2.27Q176.76,359,124.5,359a4,4,0,0,1-1.19-.43c-.83-1.05,0-1.88.6-2.31,8.81-5.93,9.67-14.45,9.63-24.33-.32-84-.19-168-.18-252,0-10.22,8.93-19.14,19.18-19.14Z"/></g></g></svg>